<svg width="400" height="300" viewBox="0 0 400 300" xmlns="http://www.w3.org/2000/svg">
  <defs>
    <linearGradient id="g" x1="0%" y1="0%" x2="100%" y2="100%">
      <stop offset="0%" stop-color="#9f0909"/>
      <stop offset="100%" stop-color="#ff3131"/>
    </linearGradient>
    <linearGradient id="shine" x1="0%" y1="0%" x2="100%" y2="100%">
      <stop offset="30%" stop-color="#ffffff" stop-opacity="0"/>
      <stop offset="48%" stop-color="#ffffff" stop-opacity="0.22"/>
      <stop offset="60%" stop-color="#ffffff" stop-opacity="0"/>
    </linearGradient>
  </defs>
  <rect width="400" height="300" fill="url(#g)"/>
  <rect width="400" height="300" fill="url(#shine)"/>
  <rect x="90" y="90" width="220" height="130" rx="18" fill="#ffffff"/>
  <g fill="#ffffff" opacity="0.9">
    <path d="M320 70 l4 10 10 4 -10 4 -4 10 -4 -10 -10 -4 10 -4z"/>
    <path d="M70 220 l3 7 7 3 -7 3 -3 7 -3 -7 -7 -3 7 -3z"/>
    <path d="M330 220 l3 7 7 3 -7 3 -3 7 -3 -7 -7 -3 7 -3z"/>
  </g>
</svg>
